<svg xmlns="http://www.w3.org/2000/svg" xmlns:xlink="http://www.w3.org/1999/xlink" contentStyleType="text/css" data-diagram-type="DESCRIPTION" height="996px" preserveAspectRatio="none" style="width:1918px;height:996px;background:#282828;" version="1.1" viewBox="0 0 1918 996" width="1918px" zoomAndPan="magnify"><title>Enterprise Architecture of This Presentation</title><defs/><g><rect fill="#282828" height="996" style="stroke:none;stroke-width:1;" width="1918" x="0" y="0"/><g class="title" data-source-line="2"><text fill="#FFB000" font-family="Verdana" font-size="22" font-weight="bold" lengthAdjust="spacing" textLength="550.0752" x="679.8524" y="35.4209">Enterprise Architecture of This Presentation</text></g><!--cluster browser--><g class="cluster" data-qualified-name="browser" data-source-line="8" id="ent0003"><rect fill="#282828" height="107" rx="2.5" ry="2.5" style="stroke:#FFB000;stroke-width:1;" width="197.38" x="1054.6" y="883.6094"/><path d="M1129.4594,883.6094 L1129.4594,892.9063 L1119.4594,902.9063 L1054.6,902.9063" fill="none" style="stroke:#FFB000;stroke-width:1;"/><text fill="#FFB000" font-family="Verdana" font-size="14" font-weight="bold" lengthAdjust="spacing" textLength="64.8594" x="1057.6" y="897.6045">Browser</text></g><!--cluster local--><g class="cluster" data-qualified-name="local" data-source-line="12" id="ent0005"><rect fill="#282828" height="357" rx="2.5" ry="2.5" style="stroke:#FFB000;stroke-width:1;" width="689.15" x="222.45" y="58.6094"/><text fill="#FFB000" font-family="Verdana" font-size="14" font-weight="bold" lengthAdjust="spacing" textLength="111.8633" x="511.0934" y="73.6045">Local Machine</text></g><!--cluster slidev--><g class="cluster" data-qualified-name="local.slidev" data-source-line="13" id="ent0006"><rect fill="#282828" height="274" rx="2.5" ry="2.5" style="stroke:#FFB000;stroke-width:1;" width="625.15" x="254.45" y="109.6094"/><line style="stroke:#FFB000;stroke-width:1;" x1="254.45" x2="879.6" y1="129.9063" y2="129.9063"/><text fill="#FFB000" font-family="Verdana" font-size="14" font-weight="bold" lengthAdjust="spacing" textLength="48.3232" x="542.8634" y="124.6045">Slidev</text></g><!--cluster gh--><g class="cluster" data-qualified-name="gh" data-source-line="23" id="ent0013"><rect fill="#282828" height="420" rx="2.5" ry="2.5" style="stroke:#FFB000;stroke-width:1;" width="1298.08" x="614.7" y="439.6094"/><text fill="#FFB000" font-family="Verdana" font-size="14" font-weight="bold" lengthAdjust="spacing" textLength="54.6875" x="1236.3963" y="454.6045">GitHub</text></g><!--cluster repo--><g class="cluster" data-qualified-name="gh.repo" data-source-line="25" id="ent0014"><path d="M649.2,516.6094 L795.1492,516.6094 A3.75,3.75 0 0 1 797.6492,519.1094 L804.6492,538.9063 L900.87,538.9063 A2.5,2.5 0 0 1 903.37,541.4063 L903.37,656.1094 A2.5,2.5 0 0 1 900.87,658.6094 L649.2,658.6094 A2.5,2.5 0 0 1 646.7,656.1094 L646.7,519.1094 A2.5,2.5 0 0 1 649.2,516.6094" fill="#282828" style="stroke:#FFB000;stroke-width:1;"/><line style="stroke:#FFB000;stroke-width:1;" x1="646.7" x2="804.6492" y1="538.9063" y2="538.9063"/><text fill="#FFB000" font-family="Verdana" font-size="14" font-weight="bold" lengthAdjust="spacing" textLength="144.9492" x="650.7" y="531.6045">GitHub Repository</text></g><!--cluster gha--><g class="cluster" data-qualified-name="gh.gha" data-source-line="29" id="ent0016"><rect fill="#282828" height="139" rx="2.5" ry="2.5" style="stroke:#FFB000;stroke-width:1;" width="812.51" x="1068.27" y="490.6094"/><line style="stroke:#FFB000;stroke-width:1;" x1="1068.27" x2="1880.78" y1="527.2031" y2="527.2031"/><text fill="#FFB000" font-family="Verdana" font-size="14" font-weight="bold" lengthAdjust="spacing" textLength="118.1045" x="1415.4728" y="505.6045">GitHub Actions</text><text fill="#FFB000" font-family="Verdana" font-size="14" font-weight="bold" lengthAdjust="spacing" textLength="123.7988" x="1412.6256" y="521.9014">(CI/CD Pipeline)</text></g><!--cluster pages--><g class="cluster" data-qualified-name="gh.pages" data-source-line="35" id="ent0020"><path d="M1421.48,669.6094 L1547.3111,669.6094 A3.75,3.75 0 0 1 1549.8111,672.1094 L1556.8111,708.2031 L1645.49,708.2031 A2.5,2.5 0 0 1 1647.99,710.7031 L1647.99,825.1094 A2.5,2.5 0 0 1 1645.49,827.6094 L1421.48,827.6094 A2.5,2.5 0 0 1 1418.98,825.1094 L1418.98,672.1094 A2.5,2.5 0 0 1 1421.48,669.6094" fill="#282828" style="stroke:#FFB000;stroke-width:1;"/><line style="stroke:#FFB000;stroke-width:1;" x1="1418.98" x2="1556.8111" y1="708.2031" y2="708.2031"/><text fill="#FFB000" font-family="Verdana" font-size="14" font-weight="bold" lengthAdjust="spacing" textLength="107.1191" x="1431.836" y="684.6045">GitHub Pages</text><text fill="#FFB000" font-family="Verdana" font-size="14" font-weight="bold" lengthAdjust="spacing" textLength="124.8311" x="1422.98" y="700.9014">(Static Hosting)</text></g><!--entity presentation--><g class="entity" data-qualified-name="browser.presentation" data-source-line="9" id="ent0004"><rect fill="#282828" height="55.5938" rx="2.5" ry="2.5" style="stroke:#FFB000;stroke-width:1;" width="165.3789" x="1070.6" y="918.8094"/><polygon fill="#282828" points="1218.9789,923.8094,1218.9789,937.8094,1230.9789,937.8094,1230.9789,929.8094,1224.9789,923.8094,1218.9789,923.8094" style="stroke:#FFB000;stroke-width:1;"/><line style="stroke:#FFB000;stroke-width:1;" x1="1224.9789" x2="1224.9789" y1="923.8094" y2="929.8094"/><line style="stroke:#FFB000;stroke-width:1;" x1="1230.9789" x2="1224.9789" y1="929.8094" y2="929.8094"/><text fill="#FFB000" font-family="Verdana" font-size="14" lengthAdjust="spacing" textLength="135.3789" x="1080.6" y="944.8045">Slidev Presentation</text><text fill="#FFB000" font-family="Verdana" font-size="14" lengthAdjust="spacing" textLength="131.708" x="1082.4354" y="961.1014">(HTML + CSS + JS)</text></g><!--entity Markdown Slides--><g class="entity" data-qualified-name="local.slidev.Markdown Slides" data-source-line="14" id="ent0007"><rect fill="#282828" height="39.2969" rx="2.5" ry="2.5" style="stroke:#FFB000;stroke-width:1;" width="148.207" x="287.97" y="300.9594"/><polygon fill="#282828" points="419.177,305.9594,419.177,319.9594,431.177,319.9594,431.177,311.9594,425.177,305.9594,419.177,305.9594" style="stroke:#FFB000;stroke-width:1;"/><line style="stroke:#FFB000;stroke-width:1;" x1="425.177" x2="425.177" y1="305.9594" y2="311.9594"/><line style="stroke:#FFB000;stroke-width:1;" x1="431.177" x2="425.177" y1="311.9594" y2="311.9594"/><text fill="#FFB000" font-family="Verdana" font-size="14" lengthAdjust="spacing" textLength="118.207" x="297.97" y="326.9545">Markdown Slides</text></g><!--entity PlantUML Diagrams--><g class="entity" data-qualified-name="local.slidev.PlantUML Diagrams" data-source-line="15" id="ent0008"><rect fill="#282828" height="39.2969" rx="2.5" ry="2.5" style="stroke:#FFB000;stroke-width:1;" width="167.252" x="278.45" y="226.9594"/><polygon fill="#282828" points="428.702,231.9594,428.702,245.9594,440.702,245.9594,440.702,237.9594,434.702,231.9594,428.702,231.9594" style="stroke:#FFB000;stroke-width:1;"/><line style="stroke:#FFB000;stroke-width:1;" x1="434.702" x2="434.702" y1="231.9594" y2="237.9594"/><line style="stroke:#FFB000;stroke-width:1;" x1="440.702" x2="434.702" y1="237.9594" y2="237.9594"/><text fill="#FFB000" font-family="Verdana" font-size="14" lengthAdjust="spacing" textLength="137.252" x="288.45" y="252.9545">PlantUML Diagrams</text></g><!--entity Images--><g class="entity" data-qualified-name="local.slidev.Images" data-source-line="16" id="ent0009"><rect fill="#282828" height="39.2969" rx="2.5" ry="2.5" style="stroke:#FFB000;stroke-width:1;" width="81.1396" x="321.51" y="152.9594"/><polygon fill="#282828" points="385.6496,157.9594,385.6496,171.9594,397.6496,171.9594,397.6496,163.9594,391.6496,157.9594,385.6496,157.9594" style="stroke:#FFB000;stroke-width:1;"/><line style="stroke:#FFB000;stroke-width:1;" x1="391.6496" x2="391.6496" y1="157.9594" y2="163.9594"/><line style="stroke:#FFB000;stroke-width:1;" x1="397.6496" x2="391.6496" y1="163.9594" y2="163.9594"/><text fill="#FFB000" font-family="Verdana" font-size="14" lengthAdjust="spacing" textLength="51.1396" x="331.51" y="178.9545">Images</text></g><!--entity HTML Pages--><g class="entity" data-qualified-name="local.slidev.HTML Pages" data-source-line="17" id="ent0010"><rect fill="#282828" height="39.2969" rx="2.5" ry="2.5" style="stroke:#FFB000;stroke-width:1;" width="115.2236" x="717.42" y="300.9594"/><polygon fill="#282828" points="815.6436,305.9594,815.6436,319.9594,827.6436,319.9594,827.6436,311.9594,821.6436,305.9594,815.6436,305.9594" style="stroke:#FFB000;stroke-width:1;"/><line style="stroke:#FFB000;stroke-width:1;" x1="821.6436" x2="821.6436" y1="305.9594" y2="311.9594"/><line style="stroke:#FFB000;stroke-width:1;" x1="827.6436" x2="821.6436" y1="311.9594" y2="311.9594"/><text fill="#FFB000" font-family="Verdana" font-size="14" lengthAdjust="spacing" textLength="85.2236" x="727.42" y="326.9545">HTML Pages</text></g><!--entity CSS Styles--><g class="entity" data-qualified-name="local.slidev.CSS Styles" data-source-line="18" id="ent0011"><rect fill="#282828" height="39.2969" rx="2.5" ry="2.5" style="stroke:#FFB000;stroke-width:1;" width="104.457" x="722.81" y="226.9594"/><polygon fill="#282828" points="810.267,231.9594,810.267,245.9594,822.267,245.9594,822.267,237.9594,816.267,231.9594,810.267,231.9594" style="stroke:#FFB000;stroke-width:1;"/><line style="stroke:#FFB000;stroke-width:1;" x1="816.267" x2="816.267" y1="231.9594" y2="237.9594"/><line style="stroke:#FFB000;stroke-width:1;" x1="822.267" x2="816.267" y1="237.9594" y2="237.9594"/><text fill="#FFB000" font-family="Verdana" font-size="14" lengthAdjust="spacing" textLength="74.457" x="732.81" y="252.9545">CSS Styles</text></g><!--entity Configuration Files--><g class="entity" data-qualified-name="local.slidev.Configuration Files" data-source-line="19" id="ent0012"><rect fill="#282828" height="39.2969" rx="2.5" ry="2.5" style="stroke:#FFB000;stroke-width:1;" width="161.1338" x="694.47" y="152.9594"/><polygon fill="#282828" points="838.6038,157.9594,838.6038,171.9594,850.6038,171.9594,850.6038,163.9594,844.6038,157.9594,838.6038,157.9594" style="stroke:#FFB000;stroke-width:1;"/><line style="stroke:#FFB000;stroke-width:1;" x1="844.6038" x2="844.6038" y1="157.9594" y2="163.9594"/><line style="stroke:#FFB000;stroke-width:1;" x1="850.6038" x2="844.6038" y1="163.9594" y2="163.9594"/><text fill="#FFB000" font-family="Verdana" font-size="14" lengthAdjust="spacing" textLength="131.1338" x="704.47" y="178.9545">Configuration Files</text></g><!--entity source files\n(slides, diagrams, assets)--><g class="entity" data-qualified-name="gh.repo.source files.n.slides. diagrams. assets." data-source-line="26" id="ent0015"><rect fill="#282828" height="55.5938" rx="2.5" ry="2.5" style="stroke:#FFB000;stroke-width:1;" width="208.6641" x="670.7" y="578.8094"/><polygon fill="#282828" points="862.3641,583.8094,862.3641,597.8094,874.3641,597.8094,874.3641,589.8094,868.3641,583.8094,862.3641,583.8094" style="stroke:#FFB000;stroke-width:1;"/><line style="stroke:#FFB000;stroke-width:1;" x1="868.3641" x2="868.3641" y1="583.8094" y2="589.8094"/><line style="stroke:#FFB000;stroke-width:1;" x1="874.3641" x2="868.3641" y1="589.8094" y2="589.8094"/><text fill="#FFB000" font-family="Verdana" font-size="14" lengthAdjust="spacing" textLength="79.8643" x="730.0999" y="604.8045">source files</text><text fill="#FFB000" font-family="Verdana" font-size="14" lengthAdjust="spacing" textLength="178.6641" x="680.7" y="621.1014">(slides, diagrams, assets)</text></g><!--entity build--><g class="entity" data-qualified-name="gh.gha.build" data-source-line="30" id="ent0017"><polygon fill="#282828" points="1092.27,549.4594,1204.3149,549.4594,1214.3149,567.6078,1204.3149,585.7563,1092.27,585.7563,1102.27,567.6078" style="stroke:#FFB000;stroke-width:1;"/><text fill="#FFB000" font-family="Verdana" font-size="14" lengthAdjust="spacing" textLength="82.0449" x="1112.27" y="572.4545">Build Slidev</text></g><!--entity generate--><g class="entity" data-qualified-name="gh.gha.generate" data-source-line="31" id="ent0018"><polygon fill="#282828" points="1444.48,549.4594,1612.4907,549.4594,1622.4907,567.6078,1612.4907,585.7563,1444.48,585.7563,1454.48,567.6078" style="stroke:#FFB000;stroke-width:1;"/><text fill="#FFB000" font-family="Verdana" font-size="14" lengthAdjust="spacing" textLength="138.0107" x="1464.48" y="572.4545">Generate static site</text></g><!--entity deploy--><g class="entity" data-qualified-name="gh.gha.deploy" data-source-line="32" id="ent0019"><polygon fill="#282828" points="1702.99,549.4594,1846.781,549.4594,1856.781,567.6078,1846.781,585.7563,1702.99,585.7563,1712.99,567.6078" style="stroke:#FFB000;stroke-width:1;"/><text fill="#FFB000" font-family="Verdana" font-size="14" lengthAdjust="spacing" textLength="113.791" x="1722.99" y="572.4545">Deploy to Pages</text></g><!--entity Built Presentation\n(index.html + assets)--><g class="entity" data-qualified-name="gh.pages.Built Presentation.n.index.html . assets." data-source-line="36" id="ent0021"><rect fill="#282828" height="55.5938" rx="2.5" ry="2.5" style="stroke:#FFB000;stroke-width:1;" width="181.0059" x="1442.98" y="747.8094"/><polygon fill="#282828" points="1606.9859,752.8094,1606.9859,766.8094,1618.9859,766.8094,1618.9859,758.8094,1612.9859,752.8094,1606.9859,752.8094" style="stroke:#FFB000;stroke-width:1;"/><line style="stroke:#FFB000;stroke-width:1;" x1="1612.9859" x2="1612.9859" y1="752.8094" y2="758.8094"/><line style="stroke:#FFB000;stroke-width:1;" x1="1618.9859" x2="1612.9859" y1="758.8094" y2="758.8094"/><text fill="#FFB000" font-family="Verdana" font-size="14" lengthAdjust="spacing" textLength="124.6738" x="1466.146" y="773.8045">Built Presentation</text><text fill="#FFB000" font-family="Verdana" font-size="14" lengthAdjust="spacing" textLength="151.0059" x="1452.98" y="790.1014">(index.html + assets)</text></g><!--entity user--><g class="entity" data-qualified-name="user" data-source-line="6" id="ent0002"><ellipse cx="44.7251" cy="852.8094" fill="#282828" rx="8" ry="8" style="stroke:#FFB000;stroke-width:1;"/><path d="M44.7251,860.8094 L44.7251,887.8094 M31.7251,868.8094 L57.7251,868.8094 M44.7251,887.8094 L31.7251,902.8094 M44.7251,887.8094 L57.7251,902.8094" fill="none" style="stroke:#FFB000;stroke-width:1;"/><text fill="#FFB000" font-family="Verdana" font-size="14" lengthAdjust="spacing" textLength="67.4502" x="11" y="917.8045">Presenter</text><text fill="#FFB000" font-family="Verdana" font-size="14" lengthAdjust="spacing" textLength="33.1748" x="28.1377" y="934.1014">(me)</text></g><!--link user to slidev--><g class="link" data-entity-1="ent0002" data-entity-2="ent0006" data-link-type="dependency" data-source-line="40" id="lnk22"><path d="M74.55,843.5394 C113.17,780.4694 183.9875,664.8144 245.5525,564.2706 C276.335,513.9988 304.8044,467.5047 325.7794,433.2505 C336.2669,416.1234 344.8808,402.0562 350.9734,392.1068 C352.4966,389.6194 353.8622,387.3894 355.0601,385.4333 C355.3595,384.9443 352.5151,389.5891 352.7934,389.1346" fill="none" id="user-to-slidev" style="stroke:#FFB000;stroke-width:1;"/><polygon fill="#FFB000" points="355.9269,384.0178,347.8155,389.604,353.3157,388.2818,354.6379,393.782,355.9269,384.0178" style="stroke:#FFB000;stroke-width:1;"/><text fill="#FFB000" font-family="Verdana" font-size="13" lengthAdjust="spacing" textLength="66.3267" x="124.7098" y="614.6763">Edit slides</text><text fill="#FFB000" font-family="Verdana" font-size="13" lengthAdjust="spacing" textLength="96.8462" x="109.45" y="629.8091">Preview locally</text></g><!--link slidev to repo--><g class="link" data-entity-1="ent0006" data-entity-2="ent0014" data-link-type="dependency" data-source-line="41" id="lnk23"><path d="M383.4389,383.9327 C383.8074,384.0833 384.1802,384.2357 384.5575,384.39 C385.312,384.6984 386.0841,385.014 386.8733,385.3367 C388.4519,385.982 390.0992,386.6554 391.8124,387.3557 C395.2387,388.7564 398.9282,390.2646 402.8569,391.8707 C410.7145,395.0829 419.5292,398.6863 429.1095,402.6028 C467.4309,418.2688 518.0031,438.9431 568.5738,459.6169 C593.8591,469.9538 619.144,480.2905 642.897,490.0009 C654.7735,494.8561 666.267,499.5548 677.1861,504.0186 C682.6456,506.2505 687.9615,508.4237 693.1099,510.5284 C695.6841,511.5807 698.2165,512.6159 700.7039,513.6328 C701.9476,514.1412 703.1801,514.6451 704.401,515.1442 C705.0115,515.3938 705.619,515.6421 706.2236,515.8893 C706.5259,516.0129 701.2737,513.8657 701.5745,513.9887" fill="none" id="slidev-to-repo" style="stroke:#FFB000;stroke-width:1;"/><polygon fill="#FFB000" points="707.1283,516.2592,700.3112,509.1509,702.5001,514.3671,697.284,516.5561,707.1283,516.2592" style="stroke:#FFB000;stroke-width:1;"/><text fill="#FFB000" font-family="Verdana" font-size="13" lengthAdjust="spacing" textLength="52.5967" x="511.2" y="421.6763">git push</text></g><!--link repo to gha--><g class="link" data-entity-1="ent0014" data-entity-2="ent0016" data-link-type="dependency" data-source-line="43" id="lnk24"><path d="M904.0704,559.4504 C904.3208,559.498 904.571,559.5457 904.8211,559.5935 C905.8215,559.7848 906.8194,559.978 907.8145,560.1731 C911.7951,560.9538 915.7313,561.7656 919.6,562.6094 C977.29,575.1894 989.28,587.4294 1046.6,601.6094 C1052.31,603.0219 1058.215,604.3895 1064.1806,605.702 C1064.9263,605.866 1065.6729,606.0292 1066.4202,606.1916 C1066.7939,606.2727 1067.1677,606.3536 1067.5417,606.4344 C1067.7287,606.4747 1062.0499,605.253 1062.237,605.2932" fill="none" id="repo-to-gha" style="stroke:#FFB000;stroke-width:1;"/><polygon fill="#FFB000" points="1068.1028,606.5553,1060.1455,600.7517,1063.2146,605.5036,1058.4627,608.5727,1068.1028,606.5553" style="stroke:#FFB000;stroke-width:1;"/><text fill="#FFB000" font-family="Verdana" font-size="13" lengthAdjust="spacing" textLength="109.1099" x="928.6" y="561.6763">Trigger workflow</text></g><!--link build to generate--><g class="link" data-entity-1="ent0017" data-entity-2="ent0018" data-link-type="dependency" data-source-line="44" id="lnk25"><path d="M1214.63,567.6094 C1276.57,567.6094 1367.61,567.6094 1438.18,567.6094" fill="none" id="build-to-generate" style="stroke:#FFB000;stroke-width:1;"/><polygon fill="#FFB000" points="1444.18,567.6094,1435.18,563.6094,1439.18,567.6094,1435.18,571.6094,1444.18,567.6094" style="stroke:#FFB000;stroke-width:1;"/></g><!--link generate to deploy--><g class="link" data-entity-1="ent0018" data-entity-2="ent0019" data-link-type="dependency" data-source-line="45" id="lnk26"><path d="M1622.72,567.6094 C1648.83,567.6094 1671.19,567.6094 1696.49,567.6094" fill="none" id="generate-to-deploy" style="stroke:#FFB000;stroke-width:1;"/><polygon fill="#FFB000" points="1702.49,567.6094,1693.49,563.6094,1697.49,567.6094,1693.49,571.6094,1702.49,567.6094" style="stroke:#FFB000;stroke-width:1;"/></g><!--link gha to pages--><g class="link" data-entity-1="ent0016" data-entity-2="ent0020" data-link-type="dependency" data-source-line="47" id="lnk27"><path d="M1188.2309,629.7799 C1189.1069,629.9907 1189.997,630.2049 1190.9009,630.4224 C1198.132,632.1623 1206.2438,634.1142 1215.0603,636.2356 C1250.3263,644.7212 1296.8663,655.9194 1343.405,667.1169 C1366.6744,672.7156 1389.9434,678.3142 1411.8028,683.5735 C1413.169,683.9022 1414.5297,684.2296 1415.8845,684.5556 C1416.562,684.7186 1417.2379,684.8812 1417.9124,685.0435 C1418.2496,685.1246 1412.7529,683.8021 1413.0894,683.8831" fill="none" id="gha-to-pages" style="stroke:#FFB000;stroke-width:1;"/><polygon fill="#FFB000" points="1418.9229,685.2866,1411.1083,679.2923,1414.0617,684.117,1409.2369,687.0703,1418.9229,685.2866" style="stroke:#FFB000;stroke-width:1;"/><text fill="#FFB000" font-family="Verdana" font-size="13" lengthAdjust="spacing" textLength="112.9565" x="1275.48" y="647.6763">Deploy static site</text></g><!--link user to presentation--><g class="link" data-entity-1="ent0002" data-entity-2="ent0004" data-link-type="dependency" data-source-line="49" id="lnk28"><path d="M78.84,892.2894 C228.71,899.8694 839.8077,930.796 1064.2277,942.156" fill="none" id="user-to-presentation" style="stroke:#FFB000;stroke-width:1;"/><polygon fill="#FFB000" points="1070.22,942.4594,1061.4337,938.0095,1065.2264,942.2066,1061.0293,945.9993,1070.22,942.4594" style="stroke:#FFB000;stroke-width:1;"/><text fill="#FFB000" font-family="Verdana" font-size="13" lengthAdjust="spacing" textLength="121.4243" x="476.7" y="893.6763">Open presentation</text><text fill="#FFB000" font-family="Verdana" font-size="13" lengthAdjust="spacing" textLength="68.2817" x="503.2713" y="908.8091">in browser</text></g><!--link presentation to pages--><g class="link" data-entity-1="ent0004" data-entity-2="ent0020" data-link-type="dependency" data-source-line="50" id="lnk29"><path d="M1176.96,918.6094 C1217.03,871.2894 1305.42,776.2694 1402.98,731.6094 C1406.2344,730.12 1409.5785,728.742 1412.9889,727.4672 C1414.6942,726.8298 1416.416,726.2182 1418.1515,725.6315 C1418.3684,725.5581 1412.8944,727.3853 1413.1118,727.3127" fill="none" id="presentation-to-pages" style="stroke:#FFB000;stroke-width:1;"/><polygon fill="#FFB000" points="1418.803,725.4126,1408.9994,724.4687,1414.0603,726.9961,1411.533,732.0569,1418.803,725.4126" style="stroke:#FFB000;stroke-width:1;"/><text fill="#FFB000" font-family="Verdana" font-size="13" lengthAdjust="spacing" textLength="125.7344" x="1268.98" y="735.6763">Load static website</text></g><!--SRC=[RLF1Rjim3BthApYV5gpPxZaCw9AkwP1WmPpTUb5isXOYIuP4rms6_liesIxif1V38f_u-1wfJrHXZP0vMihwX4wG8esGF1X2rpZb4UvTLYd2Z5g7O0iuLih3mQ57GvAKDOdGM12G1QVAYY1NZj6S4FwiJ2ETh277GhQQZlXAzrgLfkRBa65W4K9cP1qaGqrqp-PpZOi4f8VM1q319RYf7yvsV8w9K_yF_mI0TAGABW99gbMEBxFkkDZskD_15rYdANz_fNtbPe8HRqA4dgKfW_YTpQI6lMJT1YDOnqZWogJBHvwOyZrbo4qxsKjtpcrd849zSfK-Q6deBxUrKR9aTJU0frgMjzUYaiD7cI0kfOl-86DDeShMHQNmKmsGjolHZugsxIbAAYkMmv32wfmj7bBm1nlh5O_g4b6EZpUolMrTXb045dO-ckFlU2LwbNTyqIFvHT_1kvy3mtrSct1n_VHjlO63Qb3p31P3MtBWQvpDq7lUY5Rf72RJE8N07FE81bayWW_3pe0bz4CjXyGSli56sqlOvjxdWCnZR6ovaTcPK-zTHnptdFRrjzQJCkMmPI5tur9ecwwtL9aSNxzML6lUqfbDp1hU0IoNtyTrMy53hgW_CJUNUb7OzNkgBs90XGjnJ2ie6TsqlWepvq3813zNSEH7MtBnphfpeMqdeeKzO3He_8dHmGmHheTpBt45Wt4JboTjJryROtytQ6QnPwFC-AR533obs5cPZmGTdWB7Vm00]--></g></svg>